<svg width="1440" height="733" viewBox="0 0 1440 733" fill="none" xmlns="http://www.w3.org/2000/svg">
<path fill-rule="evenodd" clip-rule="evenodd" d="M60 89.4121L0 107.39V363V431V534.623L102 567.903C142.097 581.37 156.336 585.913 168.074 589.659C186.195 595.44 198.355 599.32 290.5 631.201C295.767 633.023 300.821 634.78 305.686 636.472C404.747 670.911 426.006 678.302 589 660.566C832.841 634.032 1009 623.769 1129 658.418C1203.73 676.243 1214.23 678.815 1251.74 688.005C1274.71 693.633 1307.81 701.742 1372 717.356L1440 733V431V363V65.0259L1340.5 92.8122C1240 109.648 1214 109.288 1079 106.769C1068.82 105.57 1058.99 104.436 1049.43 103.335C947.776 91.6139 877.746 83.5395 758 39.3043C616.318 -13.0342 423.5 -6.94545 284 21.843C217.882 38.5226 165.703 55.5042 120.179 70.3201C98.9147 77.2404 79.1026 83.6883 60 89.4121Z" fill="#0099FF"/>
</svg>
