<svg width="15" height="15" viewBox="0 0 15 15" fill="none" xmlns="http://www.w3.org/2000/svg">
<g id="Social Icons" clip-path="url(#clip0_113_261)">
<path id="Vector" d="M7.5 1.2995C9.50391 1.2995 9.74121 1.30796 10.5293 1.34178C11.2617 1.37279 11.6572 1.49119 11.9209 1.58985C12.2695 1.71951 12.5215 1.87737 12.7822 2.12825C13.0459 2.38195 13.207 2.62155 13.3418 2.957C13.4443 3.2107 13.5674 3.59407 13.5996 4.29597C13.6348 5.05706 13.6436 5.28539 13.6436 7.21068C13.6436 9.1388 13.6348 9.36713 13.5996 10.1254C13.5674 10.8301 13.4443 11.2107 13.3418 11.4644C13.207 11.7998 13.043 12.0422 12.7822 12.2931C12.5186 12.5468 12.2695 12.7019 11.9209 12.8315C11.6572 12.9302 11.2588 13.0486 10.5293 13.0796C9.73828 13.1134 9.50098 13.1219 7.5 13.1219C5.49609 13.1219 5.25879 13.1134 4.4707 13.0796C3.73828 13.0486 3.34277 12.9302 3.0791 12.8315C2.73047 12.7019 2.47852 12.544 2.21777 12.2931C1.9541 12.0394 1.79297 11.7998 1.6582 11.4644C1.55566 11.2107 1.43262 10.8273 1.40039 10.1254C1.36523 9.36431 1.35645 9.13598 1.35645 7.21068C1.35645 5.28257 1.36523 5.05424 1.40039 4.29597C1.43262 3.59125 1.55566 3.2107 1.6582 2.957C1.79297 2.62155 1.95703 2.37913 2.21777 2.12825C2.48145 1.87455 2.73047 1.71951 3.0791 1.58985C3.34277 1.49119 3.74121 1.37279 4.4707 1.34178C5.25879 1.30796 5.49609 1.2995 7.5 1.2995ZM7.5 0C5.46387 0 5.20898 0.00845663 4.40918 0.0422831C3.6123 0.0761097 3.06445 0.20014 2.58984 0.377729C2.09473 0.563775 1.67578 0.809017 1.25977 1.21212C0.84082 1.6124 0.585938 2.0155 0.392578 2.48907C0.208008 2.94854 0.0791016 3.47285 0.0439453 4.23959C0.00878906 5.01196 0 5.2572 0 7.21632C0 9.17544 0.00878906 9.42068 0.0439453 10.1902C0.0791016 10.957 0.208008 11.4841 0.392578 11.9408C0.585938 12.4171 0.84082 12.8202 1.25977 13.2205C1.67578 13.6208 2.09473 13.8689 2.58691 14.0521C3.06445 14.2297 3.60938 14.3537 4.40625 14.3875C5.20605 14.4214 5.46094 14.4298 7.49707 14.4298C9.5332 14.4298 9.78809 14.4214 10.5879 14.3875C11.3848 14.3537 11.9326 14.2297 12.4072 14.0521C12.8994 13.8689 13.3184 13.6208 13.7344 13.2205C14.1504 12.8202 14.4082 12.4171 14.5986 11.9436C14.7832 11.4841 14.9121 10.9598 14.9473 10.1931C14.9824 9.4235 14.9912 9.17826 14.9912 7.21914C14.9912 5.26002 14.9824 5.01478 14.9473 4.24523C14.9121 3.47849 14.7832 2.95136 14.5986 2.49471C14.4141 2.0155 14.1592 1.6124 13.7402 1.21212C13.3242 0.811836 12.9053 0.563775 12.4131 0.380548C11.9355 0.202959 11.3906 0.0789285 10.5938 0.045102C9.79102 0.00845663 9.53613 0 7.5 0Z" fill="white"/>
<path id="Vector_2" d="M7.5 3.50952C5.37305 3.50952 3.64746 5.16984 3.64746 7.21634C3.64746 9.26285 5.37305 10.9232 7.5 10.9232C9.62695 10.9232 11.3525 9.26285 11.3525 7.21634C11.3525 5.16984 9.62695 3.50952 7.5 3.50952ZM7.5 9.62084C6.12012 9.62084 5.00098 8.54403 5.00098 7.21634C5.00098 5.88865 6.12012 4.81184 7.5 4.81184C8.87988 4.81184 9.99902 5.88865 9.99902 7.21634C9.99902 8.54403 8.87988 9.62084 7.5 9.62084Z" fill="white"/>
<path id="Vector_3" d="M12.4043 3.36295C12.4043 3.84216 12 4.22835 11.5049 4.22835C11.0068 4.22835 10.6055 3.83935 10.6055 3.36295C10.6055 2.88375 11.0098 2.49756 11.5049 2.49756C12 2.49756 12.4043 2.88656 12.4043 3.36295Z" fill="white"/>
</g>
<defs>
<clipPath id="clip0_113_261">
<rect width="15" height="14.4326" fill="white"/>
</clipPath>
</defs>
</svg>
