<svg width="277" height="120" viewBox="0 0 277 120" fill="none" xmlns="http://www.w3.org/2000/svg">
<path d="M61.3328 52.8913C61.3328 52.8913 68.8261 39.6094 88.5275 33.1751C108.229 26.7408 119.679 27.154 119.679 27.154C119.679 27.154 133.992 26.5637 141.907 27.8624C149.821 29.161 155.883 30.3417 155.883 30.3417C155.883 30.3417 145.864 26.9769 142.075 26.4456C138.286 25.9144 127.93 24.0254 119.848 23.8483C111.765 23.6712 93.495 24.3796 80.9501 28.5117C68.4051 32.6438 61.5854 36.0676 54.2605 42.0887C46.9356 48.1098 45.7568 52.8323 45.7568 52.8323L61.3328 52.8913Z" fill="#0099FF"/>
<path d="M61.3621 73.2056C61.3621 73.2056 68.8554 86.4875 88.5568 92.9218C108.258 99.3561 119.709 98.9429 119.709 98.9429C119.709 98.9429 134.022 99.5332 141.936 98.2345C149.85 96.9358 155.912 95.7552 155.912 95.7552C155.912 95.7552 145.893 99.12 142.104 99.6512C138.316 100.183 127.96 102.071 119.877 102.249C111.794 102.426 93.5243 101.717 80.9794 97.5852C68.4344 93.453 61.6147 90.0293 54.2898 84.0082C46.9649 77.9871 45.7861 73.2646 45.7861 73.2646L61.3621 73.2056Z" fill="#0099FF"/>
<path d="M135.676 36.9531L134.18 36.4217L132.707 36.9847L132.966 35.8227L131.747 35.0147L133.403 34.828L134.123 33.7656L134.888 34.8122L136.551 34.9636L135.368 35.7971L135.676 36.9531Z" fill="#0099FF"/>
<path d="M145.948 44.0367L143.052 43.4652L140.738 44.814L140.619 42.7061L138.074 41.5803L140.896 40.8491L141.637 38.8045L143.501 40.4605L146.504 40.3227L144.833 42.0773L145.948 44.0367Z" fill="#0099FF"/>
<path d="M131.972 48.523L128.425 48.0894L125.904 49.8924L125.396 47.393L122.171 46.2694L125.405 45.1583L125.932 42.6609L128.439 44.4736L131.99 44.0537L130.305 46.2851L131.972 48.523Z" fill="#0099FF"/>
<path d="M0.649902 67.3201V66.2566C0.771647 66.364 0.916667 66.4607 1.08496 66.5466C1.25684 66.6326 1.43587 66.706 1.62207 66.7668C1.81185 66.8241 2.00163 66.8689 2.19141 66.9011C2.38118 66.9333 2.55664 66.9494 2.71777 66.9494C3.27279 66.9494 3.68636 66.8474 3.9585 66.6433C4.23421 66.4356 4.37207 66.1384 4.37207 65.7517C4.37207 65.544 4.32552 65.3632 4.23242 65.2092C4.1429 65.0552 4.01758 64.9156 3.85645 64.7903C3.69531 64.6614 3.50374 64.5396 3.28174 64.425C3.06331 64.3069 2.82699 64.1833 2.57275 64.0544C2.3042 63.9184 2.05355 63.7805 1.8208 63.6409C1.58805 63.5012 1.38574 63.3472 1.21387 63.1789C1.04199 63.0106 0.905924 62.8209 0.805664 62.6096C0.708984 62.3948 0.660645 62.1441 0.660645 61.8577C0.660645 61.5067 0.73763 61.2024 0.891602 60.9446C1.04557 60.6832 1.24788 60.4683 1.49854 60.3C1.74919 60.1317 2.03385 60.0064 2.35254 59.9241C2.6748 59.8417 3.00244 59.8005 3.33545 59.8005C4.09456 59.8005 4.64779 59.8918 4.99512 60.0744V61.0896C4.54036 60.7745 3.95671 60.6169 3.24414 60.6169C3.0472 60.6169 2.85026 60.6384 2.65332 60.6814C2.45638 60.7208 2.28092 60.787 2.12695 60.8801C1.97298 60.9732 1.84766 61.0932 1.75098 61.24C1.6543 61.3868 1.60596 61.5658 1.60596 61.7771C1.60596 61.974 1.64176 62.1441 1.71338 62.2873C1.78857 62.4306 1.89779 62.5613 2.04102 62.6794C2.18424 62.7976 2.35791 62.9122 2.56201 63.0232C2.76969 63.1342 3.00781 63.2559 3.27637 63.3884C3.55208 63.5245 3.81348 63.6677 4.06055 63.8181C4.30762 63.9685 4.52425 64.135 4.71045 64.3176C4.89665 64.5002 5.04346 64.7025 5.15088 64.9245C5.26188 65.1466 5.31738 65.4008 5.31738 65.6872C5.31738 66.0668 5.24219 66.3891 5.0918 66.654C4.94499 66.9154 4.74447 67.1285 4.49023 67.2932C4.23958 67.4579 3.94954 67.5761 3.62012 67.6477C3.29069 67.7229 2.94336 67.7605 2.57812 67.7605C2.45638 67.7605 2.30599 67.7497 2.12695 67.7283C1.94792 67.7104 1.7653 67.6817 1.5791 67.6423C1.3929 67.6065 1.21566 67.5618 1.04736 67.508C0.88265 67.4507 0.750163 67.3881 0.649902 67.3201ZM7.61621 67.6316H6.73535V59.489H7.61621V67.6316ZM13.8198 65.1018H9.93652C9.95085 65.7141 10.1156 66.1868 10.4307 66.5198C10.7458 66.8528 11.179 67.0193 11.7305 67.0193C12.3499 67.0193 12.9193 66.8152 13.4385 66.407V67.2341C12.9551 67.585 12.3159 67.7605 11.521 67.7605C10.744 67.7605 10.1335 67.5116 9.68945 67.0139C9.24544 66.5126 9.02344 65.809 9.02344 64.9031C9.02344 64.0473 9.26514 63.3508 9.74854 62.8137C10.2355 62.273 10.8389 62.0027 11.5586 62.0027C12.2783 62.0027 12.8351 62.2354 13.229 62.7009C13.6229 63.1664 13.8198 63.8127 13.8198 64.6399V65.1018ZM12.9175 64.3552C12.9139 63.8467 12.7904 63.4511 12.5469 63.1682C12.307 62.8853 11.9722 62.7439 11.5425 62.7439C11.1271 62.7439 10.7744 62.8925 10.4844 63.1897C10.1943 63.4869 10.0153 63.8754 9.94727 64.3552H12.9175ZM19.5776 65.1018H15.6943C15.7087 65.7141 15.8734 66.1868 16.1885 66.5198C16.5036 66.8528 16.9368 67.0193 17.4883 67.0193C18.1077 67.0193 18.6771 66.8152 19.1963 66.407V67.2341C18.7129 67.585 18.0737 67.7605 17.2788 67.7605C16.5018 67.7605 15.8913 67.5116 15.4473 67.0139C15.0033 66.5126 14.7812 65.809 14.7812 64.9031C14.7812 64.0473 15.0229 63.3508 15.5063 62.8137C15.9933 62.273 16.5967 62.0027 17.3164 62.0027C18.0361 62.0027 18.5929 62.2354 18.9868 62.7009C19.3807 63.1664 19.5776 63.8127 19.5776 64.6399V65.1018ZM18.6753 64.3552C18.6717 63.8467 18.5482 63.4511 18.3047 63.1682C18.0648 62.8853 17.73 62.7439 17.3003 62.7439C16.8849 62.7439 16.5322 62.8925 16.2422 63.1897C15.9521 63.4869 15.7731 63.8754 15.7051 64.3552H18.6753ZM21.8174 66.8367H21.7959V70.1614H20.915V62.1316H21.7959V63.0984H21.8174C22.2507 62.3679 22.8844 62.0027 23.7188 62.0027C24.4277 62.0027 24.981 62.2497 25.3784 62.7439C25.7759 63.2344 25.9746 63.8933 25.9746 64.7204C25.9746 65.6407 25.7508 66.3783 25.3032 66.9333C24.8556 67.4848 24.2433 67.7605 23.4663 67.7605C22.7537 67.7605 22.2041 67.4525 21.8174 66.8367ZM21.7959 64.6184V65.3865C21.7959 65.8412 21.9427 66.2279 22.2363 66.5466C22.5335 66.8617 22.9095 67.0193 23.3643 67.0193C23.8978 67.0193 24.3149 66.8152 24.6157 66.407C24.9201 65.9988 25.0723 65.4312 25.0723 64.7043C25.0723 64.092 24.9308 63.6122 24.6479 63.2649C24.3651 62.9175 23.9819 62.7439 23.4985 62.7439C22.9865 62.7439 22.5747 62.9229 22.2632 63.281C21.9517 63.6355 21.7959 64.0813 21.7959 64.6184ZM36.4805 67.6316H35.4814L34.665 65.4724H31.3994L30.6313 67.6316H29.627L32.5811 59.9294H33.5156L36.4805 67.6316ZM34.3696 64.6614L33.1611 61.3796C33.1217 61.2722 33.0824 61.1003 33.043 60.864H33.0215C32.9857 61.0824 32.9445 61.2543 32.8979 61.3796L31.7002 64.6614H34.3696ZM37.168 67.4328V66.4875C37.6478 66.842 38.1759 67.0193 38.7524 67.0193C39.5259 67.0193 39.9126 66.7615 39.9126 66.2458C39.9126 66.099 39.8786 65.9755 39.8105 65.8752C39.7461 65.7714 39.6566 65.6801 39.542 65.6013C39.431 65.5225 39.2985 65.4527 39.1445 65.3918C38.9941 65.3274 38.8312 65.2611 38.6558 65.1931C38.4123 65.0964 38.1974 64.9997 38.0112 64.9031C37.8286 64.8028 37.6746 64.6918 37.5493 64.5701C37.4276 64.4447 37.3345 64.3033 37.27 64.1457C37.2091 63.9882 37.1787 63.8038 37.1787 63.5925C37.1787 63.3347 37.2378 63.1073 37.356 62.9104C37.4741 62.7099 37.6317 62.5434 37.8286 62.4109C38.0256 62.2748 38.2493 62.1728 38.5 62.1047C38.7542 62.0367 39.0156 62.0027 39.2842 62.0027C39.7604 62.0027 40.1865 62.085 40.5625 62.2497V63.1413C40.1579 62.8764 39.6924 62.7439 39.166 62.7439C39.0013 62.7439 38.8527 62.7636 38.7202 62.803C38.5877 62.8388 38.4731 62.8907 38.3765 62.9587C38.2834 63.0268 38.21 63.1091 38.1562 63.2058C38.1061 63.2989 38.0811 63.4027 38.0811 63.5173C38.0811 63.6605 38.1061 63.7805 38.1562 63.8772C38.21 63.9739 38.2869 64.0598 38.3872 64.135C38.4875 64.2102 38.6092 64.2782 38.7524 64.3391C38.8957 64.4 39.0586 64.4662 39.2412 64.5378C39.4847 64.6309 39.7031 64.7276 39.8965 64.8279C40.0898 64.9245 40.2546 65.0355 40.3906 65.1609C40.5267 65.2826 40.6305 65.4241 40.7021 65.5852C40.7773 65.7463 40.8149 65.9379 40.8149 66.1599C40.8149 66.432 40.7541 66.6684 40.6323 66.8689C40.5142 67.0694 40.3548 67.2359 40.1543 67.3684C39.9538 67.5009 39.7228 67.5993 39.4614 67.6638C39.2 67.7283 38.9261 67.7605 38.6396 67.7605C38.0739 67.7605 37.5833 67.6513 37.168 67.4328ZM41.8408 67.4328V66.4875C42.3206 66.842 42.8488 67.0193 43.4253 67.0193C44.1987 67.0193 44.5854 66.7615 44.5854 66.2458C44.5854 66.099 44.5514 65.9755 44.4834 65.8752C44.4189 65.7714 44.3294 65.6801 44.2148 65.6013C44.1038 65.5225 43.9714 65.4527 43.8174 65.3918C43.667 65.3274 43.5041 65.2611 43.3286 65.1931C43.0851 65.0964 42.8703 64.9997 42.6841 64.9031C42.5015 64.8028 42.3475 64.6918 42.2222 64.5701C42.1004 64.4447 42.0073 64.3033 41.9429 64.1457C41.882 63.9882 41.8516 63.8038 41.8516 63.5925C41.8516 63.3347 41.9106 63.1073 42.0288 62.9104C42.147 62.7099 42.3045 62.5434 42.5015 62.4109C42.6984 62.2748 42.9222 62.1728 43.1729 62.1047C43.4271 62.0367 43.6885 62.0027 43.957 62.0027C44.4333 62.0027 44.8594 62.085 45.2354 62.2497V63.1413C44.8307 62.8764 44.3652 62.7439 43.8389 62.7439C43.6742 62.7439 43.5256 62.7636 43.3931 62.803C43.2606 62.8388 43.146 62.8907 43.0493 62.9587C42.9562 63.0268 42.8828 63.1091 42.8291 63.2058C42.779 63.2989 42.7539 63.4027 42.7539 63.5173C42.7539 63.6605 42.779 63.7805 42.8291 63.8772C42.8828 63.9739 42.9598 64.0598 43.0601 64.135C43.1603 64.2102 43.2821 64.2782 43.4253 64.3391C43.5685 64.4 43.7314 64.4662 43.9141 64.5378C44.1576 64.6309 44.376 64.7276 44.5693 64.8279C44.7627 64.9245 44.9274 65.0355 45.0635 65.1609C45.1995 65.2826 45.3034 65.4241 45.375 65.5852C45.4502 65.7463 45.4878 65.9379 45.4878 66.1599C45.4878 66.432 45.4269 66.6684 45.3052 66.8689C45.187 67.0694 45.0277 67.2359 44.8271 67.3684C44.6266 67.5009 44.3957 67.5993 44.1343 67.6638C43.8729 67.7283 43.599 67.7605 43.3125 67.7605C42.7467 67.7605 42.2562 67.6513 41.8408 67.4328ZM47.2979 60.7351C47.1403 60.7351 47.006 60.6814 46.895 60.574C46.784 60.4665 46.7285 60.3305 46.7285 60.1658C46.7285 60.001 46.784 59.865 46.895 59.7576C47.006 59.6466 47.1403 59.591 47.2979 59.591C47.459 59.591 47.5951 59.6466 47.7061 59.7576C47.8206 59.865 47.8779 60.001 47.8779 60.1658C47.8779 60.3233 47.8206 60.4576 47.7061 60.5686C47.5951 60.6796 47.459 60.7351 47.2979 60.7351ZM47.7275 67.6316H46.8467V62.1316H47.7275V67.6316ZM49.1777 67.4328V66.4875C49.6576 66.842 50.1857 67.0193 50.7622 67.0193C51.5356 67.0193 51.9224 66.7615 51.9224 66.2458C51.9224 66.099 51.8883 65.9755 51.8203 65.8752C51.7559 65.7714 51.6663 65.6801 51.5518 65.6013C51.4408 65.5225 51.3083 65.4527 51.1543 65.3918C51.0039 65.3274 50.841 65.2611 50.6655 65.1931C50.422 65.0964 50.2072 64.9997 50.021 64.9031C49.8384 64.8028 49.6844 64.6918 49.5591 64.5701C49.4373 64.4447 49.3442 64.3033 49.2798 64.1457C49.2189 63.9882 49.1885 63.8038 49.1885 63.5925C49.1885 63.3347 49.2476 63.1073 49.3657 62.9104C49.4839 62.7099 49.6414 62.5434 49.8384 62.4109C50.0353 62.2748 50.2591 62.1728 50.5098 62.1047C50.764 62.0367 51.0254 62.0027 51.2939 62.0027C51.7702 62.0027 52.1963 62.085 52.5723 62.2497V63.1413C52.1676 62.8764 51.7021 62.7439 51.1758 62.7439C51.0111 62.7439 50.8625 62.7636 50.73 62.803C50.5975 62.8388 50.4829 62.8907 50.3862 62.9587C50.2931 63.0268 50.2197 63.1091 50.166 63.2058C50.1159 63.2989 50.0908 63.4027 50.0908 63.5173C50.0908 63.6605 50.1159 63.7805 50.166 63.8772C50.2197 63.9739 50.2967 64.0598 50.397 64.135C50.4972 64.2102 50.619 64.2782 50.7622 64.3391C50.9054 64.4 51.0684 64.4662 51.251 64.5378C51.4945 64.6309 51.7129 64.7276 51.9062 64.8279C52.0996 64.9245 52.2643 65.0355 52.4004 65.1609C52.5365 65.2826 52.6403 65.4241 52.7119 65.5852C52.7871 65.7463 52.8247 65.9379 52.8247 66.1599C52.8247 66.432 52.7638 66.6684 52.6421 66.8689C52.5239 67.0694 52.3646 67.2359 52.1641 67.3684C51.9635 67.5009 51.7326 67.5993 51.4712 67.6638C51.2098 67.7283 50.9359 67.7605 50.6494 67.7605C50.0837 67.7605 49.5931 67.6513 49.1777 67.4328ZM56.7349 67.5779C56.5272 67.6924 56.2533 67.7497 55.9131 67.7497C54.9499 67.7497 54.4683 67.2126 54.4683 66.1384V62.8835H53.5229V62.1316H54.4683V60.7888L55.3491 60.5041V62.1316H56.7349V62.8835H55.3491V65.9827C55.3491 66.3515 55.4118 66.6146 55.5371 66.7722C55.6624 66.9298 55.8701 67.0085 56.1602 67.0085C56.3822 67.0085 56.5737 66.9477 56.7349 66.8259V67.5779ZM61.8481 67.6316H60.9673V66.7722H60.9458C60.5627 67.4311 59.9987 67.7605 59.2539 67.7605C58.7061 67.7605 58.2764 67.6155 57.9648 67.3254C57.6569 67.0354 57.5029 66.6505 57.5029 66.1706C57.5029 65.143 58.1081 64.545 59.3184 64.3767L60.9673 64.1457C60.9673 63.2112 60.5895 62.7439 59.834 62.7439C59.1715 62.7439 58.5736 62.9695 58.04 63.4206V62.5183C58.5807 62.1745 59.2038 62.0027 59.9092 62.0027C61.2018 62.0027 61.8481 62.6866 61.8481 64.0544V67.6316ZM60.9673 64.8493L59.6406 65.032C59.2324 65.0893 58.9245 65.1913 58.7168 65.3381C58.5091 65.4813 58.4053 65.7374 58.4053 66.1062C58.4053 66.3747 58.5002 66.595 58.6899 66.7668C58.8833 66.9351 59.1393 67.0193 59.458 67.0193C59.8949 67.0193 60.2547 66.8671 60.5376 66.5627C60.8241 66.2548 60.9673 65.8663 60.9673 65.3972V64.8493ZM68.0732 67.6316H67.1924V64.4949C67.1924 63.3275 66.7663 62.7439 65.9141 62.7439C65.4736 62.7439 65.1084 62.9104 64.8184 63.2434C64.5319 63.5728 64.3887 63.99 64.3887 64.4949V67.6316H63.5078V62.1316H64.3887V63.0447H64.4102C64.8255 62.35 65.4271 62.0027 66.2148 62.0027C66.8164 62.0027 67.2765 62.1978 67.5952 62.5881C67.9139 62.9748 68.0732 63.5352 68.0732 64.2693V67.6316ZM72.2896 67.5779C72.0819 67.6924 71.8079 67.7497 71.4678 67.7497C70.5046 67.7497 70.0229 67.2126 70.0229 66.1384V62.8835H69.0776V62.1316H70.0229V60.7888L70.9038 60.5041V62.1316H72.2896V62.8835H70.9038V65.9827C70.9038 66.3515 70.9665 66.6146 71.0918 66.7722C71.2171 66.9298 71.4248 67.0085 71.7148 67.0085C71.9368 67.0085 72.1284 66.9477 72.2896 66.8259V67.5779Z" fill="#0072E4"/>
<path d="M83.1816 71.3283V69.3947C83.403 69.59 83.6667 69.7658 83.9727 69.9221C84.2852 70.0783 84.6107 70.2118 84.9492 70.3224C85.2943 70.4266 85.6393 70.508 85.9844 70.5666C86.3294 70.6252 86.6484 70.6545 86.9414 70.6545C87.9505 70.6545 88.7025 70.4689 89.1973 70.0978C89.6986 69.7202 89.9492 69.1799 89.9492 68.4767C89.9492 68.0991 89.8646 67.7704 89.6953 67.4904C89.5326 67.2105 89.3047 66.9566 89.0117 66.7287C88.7188 66.4943 88.3704 66.273 87.9668 66.0646C87.5697 65.8498 87.14 65.6252 86.6777 65.3908C86.1895 65.1434 85.7337 64.8928 85.3105 64.6389C84.8874 64.3849 84.5195 64.105 84.207 63.799C83.8945 63.493 83.6471 63.148 83.4648 62.7639C83.2891 62.3732 83.2012 61.9175 83.2012 61.3967C83.2012 60.7586 83.3411 60.2053 83.6211 59.7365C83.901 59.2613 84.2689 58.8706 84.7246 58.5646C85.1803 58.2586 85.6979 58.0308 86.2773 57.881C86.8633 57.7313 87.459 57.6564 88.0645 57.6564C89.4447 57.6564 90.4505 57.8224 91.082 58.1545V60.0002C90.2552 59.4273 89.194 59.1408 87.8984 59.1408C87.5404 59.1408 87.1823 59.1799 86.8242 59.258C86.4661 59.3296 86.1471 59.4501 85.8672 59.6193C85.5872 59.7886 85.3594 60.0067 85.1836 60.2736C85.0078 60.5405 84.9199 60.8661 84.9199 61.2502C84.9199 61.6083 84.985 61.9175 85.1152 62.1779C85.252 62.4383 85.4505 62.676 85.7109 62.8908C85.9714 63.1057 86.2871 63.314 86.6582 63.5158C87.0358 63.7176 87.4688 63.939 87.957 64.1799C88.4583 64.4273 88.9336 64.6877 89.3828 64.9611C89.832 65.2346 90.2259 65.5373 90.5645 65.8693C90.903 66.2014 91.1699 66.5692 91.3652 66.9728C91.5671 67.3765 91.668 67.8387 91.668 68.3596C91.668 69.0497 91.5312 69.6356 91.2578 70.1174C90.9909 70.5926 90.6263 70.98 90.1641 71.2795C89.7083 71.579 89.181 71.7938 88.582 71.924C87.9831 72.0607 87.3516 72.1291 86.6875 72.1291C86.4661 72.1291 86.1927 72.1096 85.8672 72.0705C85.5417 72.0379 85.2096 71.9859 84.8711 71.9142C84.5326 71.8491 84.2103 71.7678 83.9043 71.6701C83.6048 71.5659 83.3639 71.452 83.1816 71.3283ZM95.8477 71.8947H94.2461V57.09H95.8477V71.8947ZM107.127 67.2951H100.066C100.092 68.4084 100.392 69.2678 100.965 69.8732C101.538 70.4787 102.326 70.7814 103.328 70.7814C104.454 70.7814 105.49 70.4103 106.434 69.6682V71.1721C105.555 71.8101 104.393 72.1291 102.947 72.1291C101.535 72.1291 100.424 71.6766 99.6172 70.7717C98.8099 69.8602 98.4062 68.5809 98.4062 66.9338C98.4062 65.3778 98.8457 64.1115 99.7246 63.1349C100.61 62.1519 101.707 61.6603 103.016 61.6603C104.324 61.6603 105.337 62.0835 106.053 62.9299C106.769 63.7762 107.127 64.9514 107.127 66.4553V67.2951ZM105.486 65.9377C105.48 65.0132 105.255 64.2938 104.812 63.7795C104.376 63.2652 103.768 63.008 102.986 63.008C102.231 63.008 101.59 63.2782 101.062 63.8185C100.535 64.3589 100.21 65.0653 100.086 65.9377H105.486ZM117.596 67.2951H110.535C110.561 68.4084 110.861 69.2678 111.434 69.8732C112.007 70.4787 112.794 70.7814 113.797 70.7814C114.923 70.7814 115.958 70.4103 116.902 69.6682V71.1721C116.023 71.8101 114.861 72.1291 113.416 72.1291C112.003 72.1291 110.893 71.6766 110.086 70.7717C109.279 69.8602 108.875 68.5809 108.875 66.9338C108.875 65.3778 109.314 64.1115 110.193 63.1349C111.079 62.1519 112.176 61.6603 113.484 61.6603C114.793 61.6603 115.805 62.0835 116.521 62.9299C117.238 63.7762 117.596 64.9514 117.596 66.4553V67.2951ZM115.955 65.9377C115.949 65.0132 115.724 64.2938 115.281 63.7795C114.845 63.2652 114.236 63.008 113.455 63.008C112.7 63.008 112.059 63.2782 111.531 63.8185C111.004 64.3589 110.678 65.0653 110.555 65.9377H115.955ZM121.668 70.4494H121.629V76.4943H120.027V61.8947H121.629V63.6525H121.668C122.456 62.3244 123.608 61.6603 125.125 61.6603C126.414 61.6603 127.42 62.1096 128.143 63.008C128.865 63.8999 129.227 65.0978 129.227 66.6017C129.227 68.2749 128.82 69.6161 128.006 70.6252C127.192 71.6278 126.079 72.1291 124.666 72.1291C123.37 72.1291 122.371 71.5692 121.668 70.4494ZM121.629 66.4162V67.8127C121.629 68.6395 121.896 69.3426 122.43 69.9221C122.97 70.495 123.654 70.7814 124.48 70.7814C125.451 70.7814 126.209 70.4103 126.756 69.6682C127.309 68.926 127.586 67.8941 127.586 66.5724C127.586 65.4592 127.329 64.5868 126.814 63.9553C126.3 63.3238 125.604 63.008 124.725 63.008C123.794 63.008 123.045 63.3335 122.479 63.9846C121.912 64.6291 121.629 65.4396 121.629 66.4162ZM131.346 71.3283V69.3947C131.567 69.59 131.831 69.7658 132.137 69.9221C132.449 70.0783 132.775 70.2118 133.113 70.3224C133.458 70.4266 133.803 70.508 134.148 70.5666C134.493 70.6252 134.812 70.6545 135.105 70.6545C136.115 70.6545 136.867 70.4689 137.361 70.0978C137.863 69.7202 138.113 69.1799 138.113 68.4767C138.113 68.0991 138.029 67.7704 137.859 67.4904C137.697 67.2105 137.469 66.9566 137.176 66.7287C136.883 66.4943 136.535 66.273 136.131 66.0646C135.734 65.8498 135.304 65.6252 134.842 65.3908C134.354 65.1434 133.898 64.8928 133.475 64.6389C133.051 64.3849 132.684 64.105 132.371 63.799C132.059 63.493 131.811 63.148 131.629 62.7639C131.453 62.3732 131.365 61.9175 131.365 61.3967C131.365 60.7586 131.505 60.2053 131.785 59.7365C132.065 59.2613 132.433 58.8706 132.889 58.5646C133.344 58.2586 133.862 58.0308 134.441 57.881C135.027 57.7313 135.623 57.6564 136.229 57.6564C137.609 57.6564 138.615 57.8224 139.246 58.1545V60.0002C138.419 59.4273 137.358 59.1408 136.062 59.1408C135.704 59.1408 135.346 59.1799 134.988 59.258C134.63 59.3296 134.311 59.4501 134.031 59.6193C133.751 59.7886 133.523 60.0067 133.348 60.2736C133.172 60.5405 133.084 60.8661 133.084 61.2502C133.084 61.6083 133.149 61.9175 133.279 62.1779C133.416 62.4383 133.615 62.676 133.875 62.8908C134.135 63.1057 134.451 63.314 134.822 63.5158C135.2 63.7176 135.633 63.939 136.121 64.1799C136.622 64.4273 137.098 64.6877 137.547 64.9611C137.996 65.2346 138.39 65.5373 138.729 65.8693C139.067 66.2014 139.334 66.5692 139.529 66.9728C139.731 67.3765 139.832 67.8387 139.832 68.3596C139.832 69.0497 139.695 69.6356 139.422 70.1174C139.155 70.5926 138.79 70.98 138.328 71.2795C137.872 71.579 137.345 71.7938 136.746 71.924C136.147 72.0607 135.516 72.1291 134.852 72.1291C134.63 72.1291 134.357 72.1096 134.031 72.0705C133.706 72.0379 133.374 71.9859 133.035 71.9142C132.697 71.8491 132.374 71.7678 132.068 71.6701C131.769 71.5659 131.528 71.452 131.346 71.3283ZM150.369 61.8947L145.77 73.4963C144.949 75.5666 143.797 76.6017 142.312 76.6017C141.896 76.6017 141.548 76.5594 141.268 76.4748V75.0392C141.613 75.1564 141.928 75.215 142.215 75.215C143.022 75.215 143.628 74.7333 144.031 73.7697L144.832 71.8752L140.926 61.8947H142.703L145.408 69.59C145.441 69.6877 145.509 69.9416 145.613 70.3517H145.672C145.704 70.1955 145.77 69.9481 145.867 69.6096L148.709 61.8947H150.369ZM160.398 71.8947H158.797V66.1916C158.797 64.0692 158.022 63.008 156.473 63.008C155.672 63.008 155.008 63.3107 154.48 63.9162C153.96 64.5152 153.699 65.2736 153.699 66.1916V71.8947H152.098V61.8947H153.699V63.5549H153.738C154.493 62.2918 155.587 61.6603 157.02 61.6603C158.113 61.6603 158.95 62.0152 159.529 62.7248C160.109 63.4279 160.398 64.4468 160.398 65.7814V71.8947ZM170.242 71.4357C169.474 71.898 168.562 72.1291 167.508 72.1291C166.082 72.1291 164.93 71.6668 164.051 70.7424C163.178 69.8114 162.742 68.607 162.742 67.1291C162.742 65.482 163.214 64.1603 164.158 63.1642C165.102 62.1616 166.362 61.6603 167.938 61.6603C168.816 61.6603 169.591 61.8231 170.262 62.1486V63.7892C169.52 63.2684 168.725 63.008 167.879 63.008C166.857 63.008 166.017 63.3758 165.359 64.1115C164.708 64.8407 164.383 65.801 164.383 66.9924C164.383 68.1642 164.689 69.0887 165.301 69.7658C165.919 70.4429 166.746 70.7814 167.781 70.7814C168.654 70.7814 169.474 70.4917 170.242 69.9123V71.4357Z" fill="#0072E4"/>
</svg>
