<svg width="393" height="687" viewBox="0 0 393 687" fill="none" xmlns="http://www.w3.org/2000/svg">
<path fill-rule="evenodd" clip-rule="evenodd" d="M0 275V68.5205L21.1667 57.0494C27.9056 53.3973 34.8949 49.2833 42.3963 44.8678L42.3987 44.8663C58.4582 35.4136 76.8652 24.5788 100.189 13.937C149.401 -4.43153 217.423 -8.31654 267.406 25.0781C309.649 53.3025 334.354 58.4543 370.216 65.9328C373.587 66.6357 377.056 67.3591 380.647 68.1241C385.081 68.2738 389.181 68.4115 393 68.5295V275V686.106C365.518 668.43 351.217 659.167 341.253 652.714L341.246 652.709C324.756 642.028 320.142 639.04 287.29 618.323C234.54 578.056 157.103 589.984 49.9146 620.82C28.6158 626.947 12.8226 630.494 0 631.402V275Z" fill="#0099FF"/>
</svg>
